<svg id="Rocket_Booking-App-blueXblueno2_1_" data-name="Rocket Booking-App-blueXblueno2  (1)" xmlns="http://www.w3.org/2000/svg" xmlns:xlink="http://www.w3.org/1999/xlink" width="50" height="50" viewBox="0 0 109.5 109.5">
  <defs>
    <clipPath id="clip-path">
      <path id="Path_716" data-name="Path 716" d="M93.84,84.148h109.5v109.5H93.84Zm0,0"/>
    </clipPath>
    <clipPath id="clip-path-2">
      <path id="Path_722" data-name="Path 722" d="M109,142h48v32.684H109Zm0,0"/>
    </clipPath>
    <clipPath id="clip-path-3">
      <path id="Path_724" data-name="Path 724" d="M93.84,121H144v30H93.84Zm0,0"/>
    </clipPath>
    <clipPath id="clip-path-4">
      <path id="Path_726" data-name="Path 726" d="M151,102.684h47.09V157H151Zm0,0"/>
    </clipPath>
    <clipPath id="clip-path-5">
      <path id="Path_728" data-name="Path 728" d="M128,102.684h70.09V132H128Zm0,0"/>
    </clipPath>
  </defs>
    
  <g id="Group_706" data-name="Group 706" transform="translate(-93.84 -84.148)" clip-path="url(#clip-path)">
    <path id="Path_715" data-name="Path 715" d="M117.2,84.148H179.98c.766,0,1.532.039,2.29.113s1.519.188,2.269.336a22.848,22.848,0,0,1,2.223.559c.734.223,1.453.476,2.16.769s1.394.621,2.07.981,1.332.754,1.969,1.18,1.246.879,1.84,1.367,1.156,1,1.7,1.539,1.051,1.105,1.539,1.7.938,1.207,1.363,1.844a22.582,22.582,0,0,1,1.18,1.965c.359.676.688,1.367.981,2.074s.55,1.426.773,2.157.406,1.472.555,2.222.261,1.508.336,2.27.113,1.523.113,2.289v62.781c0,.766-.039,1.531-.113,2.293s-.188,1.516-.336,2.266-.336,1.492-.555,2.222-.481,1.453-.773,2.16-.622,1.4-.981,2.071a22.669,22.669,0,0,1-1.18,1.969c-.425.632-.879,1.25-1.363,1.839s-1,1.157-1.539,1.7-1.109,1.054-1.7,1.539-1.207.941-1.84,1.363a22.928,22.928,0,0,1-1.969,1.18c-.676.359-1.363.687-2.07.98s-1.426.551-2.16.774-1.473.406-2.223.554-1.508.262-2.269.336a22.393,22.393,0,0,1-2.29.113H117.2a22.444,22.444,0,0,1-2.289-.113q-1.143-.111-2.269-.336a22.846,22.846,0,0,1-2.223-.554c-.73-.223-1.453-.481-2.16-.774s-1.4-.621-2.07-.98a22.118,22.118,0,0,1-1.965-1.18c-.637-.422-1.25-.879-1.844-1.363s-1.156-1-1.7-1.539-1.051-1.11-1.539-1.7-.937-1.207-1.363-1.839A22.821,22.821,0,0,1,96.6,181.3q-.539-1.008-.98-2.071a22.092,22.092,0,0,1-.77-2.16,22.758,22.758,0,0,1-.559-2.222c-.148-.75-.262-1.508-.336-2.266s-.113-1.527-.113-2.293V107.508q0-1.149.113-2.289t.336-2.27a22.758,22.758,0,0,1,.559-2.222,22.419,22.419,0,0,1,.77-2.157q.439-1.061.98-2.074a22.733,22.733,0,0,1,1.18-1.965q.639-.955,1.363-1.844t1.539-1.7q.814-.814,1.7-1.539c.594-.488,1.207-.941,1.844-1.367s1.289-.816,1.965-1.18,1.367-.687,2.07-.981,1.43-.547,2.16-.769a22.777,22.777,0,0,1,2.223-.559q1.125-.223,2.269-.336T117.2,84.148Zm0,0" fill="#fff"/>
  </g>
  <path id="Path_717" data-name="Path 717" d="M144.652,128.348l3.305,5.34,2.34-1.442-3.766-6.086c-.668.735-1.3,1.469-1.879,2.188" transform="translate(-93.84 -84.148)" fill="#3871c1"/>
  <path id="Path_718" data-name="Path 718" d="M151.262,139.031c.906-.2,1.84-.437,2.8-.707l-3.766-6.078-2.34,1.442,3.3,5.343" transform="translate(-93.84 -84.148)" fill="#51ade5"/>
  <path id="Path_719" data-name="Path 719" d="M101.453,162.363l0,0,45.223-27.882L145.3,132.25l-43.844,30.113" transform="translate(-93.84 -84.148)" fill="#3871c1"/>
  <path id="Path_720" data-name="Path 720" d="M148.059,136.7l-1.379-2.226-45.223,27.882Zm0,0" transform="translate(-93.84 -84.148)" fill="#51ade5"/>
  <g id="Group_707" data-name="Group 707" transform="translate(-93.84 -84.148)" clip-path="url(#clip-path-2)">
    <path id="Path_721" data-name="Path 721" d="M156.023,142.414l-46.964,32.258,44.582-24.547c1.285-2.277,2.468-5.426,2.382-7.711" fill="#51ade5"/>
  </g>
  <g id="Group_708" data-name="Group 708" transform="translate(-93.84 -84.148)" clip-path="url(#clip-path-3)">
    <path id="Path_723" data-name="Path 723" d="M135.766,121.266,93.852,150.051l49.9-27.473c-2.008-1.105-5.363-1.449-7.988-1.312" fill="#3871c1"/>
  </g>
  <g id="Group_709" data-name="Group 709" transform="translate(-93.84 -84.148)" clip-path="url(#clip-path-4)">
    <path id="Path_725" data-name="Path 725" d="M159.652,148.363c1.012-2.8,1.7-6.261.528-9.152a81.027,81.027,0,0,0,9.879-4.473C168.813,138.715,165.984,143.844,159.652,148.363Zm31.8-41.492c-3.91,5.629-12.691,17.465-20.433,22.25a73.172,73.172,0,0,1-13.8,6.492l-3.418-5.527-2.778,1.711,4.782,7.723.66-.215.062.074c2.676,3.23-.617,10.039-2.113,12.383l-3.32,5.187,5.453-2.867c13.555-7.125,16.8-17.086,17.531-22.387l.106-.765c10.507-7.407,21.6-24.614,22.086-25.371l1.757-2.746-6.578,4.058" fill="#51ade5"/>
  </g>
  <g id="Group_710" data-name="Group 710" transform="translate(-93.84 -84.148)" clip-path="url(#clip-path-5)">
    <path id="Path_727" data-name="Path 727" d="M148.469,120.293c-2.067-2.332-5.477-3.27-8.43-3.617,6.871-3.641,12.731-3.879,16.848-3.219A82,82,0,0,0,148.469,120.293Zm46.254-17.234c-.9.093-21.258,2.328-32.582,8.414l-.735-.246c-5.074-1.719-15.441-3.262-27.875,5.671l-5,3.6,6.125-.652c2.77-.293,10.328-.215,12.036,3.64l.039.09-.489.492,4.785,7.731,2.778-1.711-3.43-5.539a73.031,73.031,0,0,1,11.973-9.434c7.789-4.816,22.449-7.383,29.183-8.351-.023.035-.05.074-.078.109l6.578-4.058.078-.118-3.382.364" fill="#3871c1"/>
  </g>
  <g id="Group_713" data-name="Group 713" transform="translate(-93.84 -84.148)">
    <g id="Group_712" data-name="Group 712" transform="translate(148.5 184.651)">
      <g id="Group_711" data-name="Group 711">
        <path id="Path_729" data-name="Path 729" d="M5.469-.031H1.734V-14.547a1.785,1.785,0,0,1,.578-1.281,1.9,1.9,0,0,1,1.328-.516H15.2a2.087,2.087,0,0,1,.344.031H15.7a5.868,5.868,0,0,1,3.172.875,5.2,5.2,0,0,1,1.8,1.891,4.542,4.542,0,0,1,.563,2.141,4.7,4.7,0,0,1-.547,2.172,4.953,4.953,0,0,1-1.8,1.891,5.993,5.993,0,0,1-3.187.891H10.844a3.418,3.418,0,0,0,.922,2.031,2.228,2.228,0,0,0,1.672.672h7.516V-.062h-8a5.025,5.025,0,0,1-3.7-1.594A6.772,6.772,0,0,1,7.234-5.516c-.336-1.656-.5-2.586-.5-2.8a1.766,1.766,0,0,1,.531-1.3,1.791,1.791,0,0,1,1.313-.547h7.3a1.87,1.87,0,0,0,.859-.234,1.322,1.322,0,0,0,.516-.469,1,1,0,0,0,.172-.547.993.993,0,0,0-.172-.531,1.384,1.384,0,0,0-.516-.469,1.971,1.971,0,0,0-.859-.234H6.188a.654.654,0,0,0-.719.719Zm0,0"/>
      </g>
    </g>
  </g>
  <g id="Group_716" data-name="Group 716" transform="translate(-93.84 -84.148)">
    <g id="Group_715" data-name="Group 715" transform="translate(170.583 184.651)">
      <g id="Group_714" data-name="Group 714">
        <path id="Path_730" data-name="Path 730" d="M20.156-7.344a5.267,5.267,0,0,1,.516,2.234,4.884,4.884,0,0,1-.547,2.2,5.237,5.237,0,0,1-1.8,1.922,5.514,5.514,0,0,1-3.172.844h-.172a1.509,1.509,0,0,1-.328.031H3.563A1.849,1.849,0,0,1,2.3-.641a1.849,1.849,0,0,1-.531-1.266V-14.547A1.8,1.8,0,0,1,2.3-15.8a1.847,1.847,0,0,1,1.266-.547h9.5a2.02,2.02,0,0,1,.328.031h.156a5.869,5.869,0,0,1,3.172.875,5.2,5.2,0,0,1,1.8,1.891,4.542,4.542,0,0,1,.563,2.141,4.729,4.729,0,0,1-.531,2.156.539.539,0,0,1-.047.078A5.375,5.375,0,0,1,20.156-7.344ZM15.313-3.812A1.41,1.41,0,0,0,16.188-4a1.454,1.454,0,0,0,.5-.5,1.2,1.2,0,0,0,.172-.609,1.349,1.349,0,0,0-.172-.531,1.352,1.352,0,0,0-.5-.562,1.629,1.629,0,0,0-.875-.25H5.5v1.906c0,.492.254.734.766.734Zm-.7-6.594a1.269,1.269,0,0,0,.484-.453,1,1,0,0,0,.172-.547.993.993,0,0,0-.172-.531,1.423,1.423,0,0,0-.5-.469,2.012,2.012,0,0,0-.875-.234H6.266a.669.669,0,0,0-.766.75v1.734h8.219A1.878,1.878,0,0,0,14.609-10.406Zm0,0" fill="#737373"/>
      </g>
    </g>
  </g>
</svg>
