<svg id="Component_63_1" data-name="Component 63 – 1" xmlns="http://www.w3.org/2000/svg" xmlns:xlink="http://www.w3.org/1999/xlink" width="276.647" height="103.5" viewBox="0 0 276.647 103.5">
  <defs>
    <clipPath id="clip-path">
      <path id="Path_618" data-name="Path 618" d="M68,192h68v47.156H68Zm0,0"/>
    </clipPath>
    <clipPath id="clip-path-2">
      <path id="Path_620" data-name="Path 620" d="M46.418,162H119v42H46.418Zm0,0"/>
    </clipPath>
    <clipPath id="clip-path-3">
      <path id="Path_622" data-name="Path 622" d="M128,135.656h68.418V214H128Zm0,0"/>
    </clipPath>
    <clipPath id="clip-path-4">
      <path id="Path_624" data-name="Path 624" d="M96,135.656H196.418V178H96Zm0,0"/>
    </clipPath>
  </defs>
  <g id="Rocket_Booking_Transparent_1_2_1_" data-name="Rocket Booking Transparent (1)2(1)">
    <path id="Path_613" data-name="Path 613" d="M119.527,172.547l4.758,7.68,3.367-2.078-5.418-8.742-2.707,3.141" transform="translate(-46.418 -135.656)" fill="#3871c1"/>
    <path id="Path_614" data-name="Path 614" d="M129.043,187.9l4.023-1.016-5.414-8.738-3.367,2.078,4.758,7.676" transform="translate(-46.418 -135.656)" fill="#51ade5"/>
    <path id="Path_615" data-name="Path 615" d="M57.375,221.441h0l65.066-40.082-1.988-3.2L57.375,221.441" transform="translate(-46.418 -135.656)" fill="#3871c1"/>
    <path id="Path_616" data-name="Path 616" d="M124.43,184.563l-1.984-3.2L57.38,221.442Zm0,0" transform="translate(-46.418 -135.656)" fill="#51ade5"/>
    <g id="Group_575" data-name="Group 575" transform="translate(-46.418 -135.656)" clip-path="url(#clip-path)">
      <path id="Path_617" data-name="Path 617" d="M135.891,192.766,68.313,239.137l64.148-35.281c1.852-3.277,3.555-7.8,3.43-11.09" fill="#51ade5"/>
    </g>
    <g id="Group_576" data-name="Group 576" transform="translate(-46.418 -135.656)" clip-path="url(#clip-path-2)">
      <path id="Path_619" data-name="Path 619" d="M106.742,162.367,46.433,203.746l71.805-39.488c-2.895-1.59-7.723-2.086-11.5-1.891" fill="#3871c1"/>
    </g>
    <g id="Group_577" data-name="Group 577" transform="translate(-46.418 -135.656)" clip-path="url(#clip-path-3)">
      <path id="Path_621" data-name="Path 621" d="M141.113,201.324c1.453-4.023,2.438-9,.758-13.16a116.58,116.58,0,0,0,14.215-6.43C154.289,187.453,150.223,194.824,141.113,201.324Zm45.75-59.648c-5.629,8.094-18.266,25.109-29.4,31.984a105.214,105.214,0,0,1-19.852,9.332l-4.918-7.945-4,2.461,6.879,11.1.953-.312.09.1c3.848,4.645-.891,14.43-3.043,17.805l-4.773,7.453,7.844-4.117c19.5-10.246,24.176-24.562,25.227-32.18l.148-1.1c15.117-10.648,31.078-35.379,31.781-36.473l2.527-3.941-9.465,5.828" fill="#51ade5"/>
    </g>
    <g id="Group_578" data-name="Group 578" transform="translate(-46.418 -135.656)" clip-path="url(#clip-path-4)">
      <path id="Path_623" data-name="Path 623" d="M125.02,160.973c-2.973-3.355-7.879-4.7-12.129-5.2,9.887-5.234,18.316-5.574,24.242-4.625A116.392,116.392,0,0,0,125.02,160.973ZM191.575,136.2c-1.293.137-30.59,3.352-46.887,12.1l-1.051-.355c-7.3-2.469-22.219-4.687-40.113,8.156l-7.195,5.168,8.816-.937c3.98-.422,14.855-.309,17.316,5.234l.055.129-.707.711,6.887,11.109,4-2.461-4.937-7.961a105.352,105.352,0,0,1,17.23-13.559c11.211-6.922,32.3-10.613,41.992-12.008-.035.051-.074.1-.113.156l9.465-5.828.109-.172-4.863.52" fill="#3871c1"/>
    </g>
    <path id="Path_625" data-name="Path 625" d="M176.51,199.844h-4.75v-18.5a2.2,2.2,0,0,1,.734-1.625,2.388,2.388,0,0,1,1.688-.656h14.734a3.355,3.355,0,0,1,.422.031h.2a7.6,7.6,0,0,1,4.047,1.141,6.565,6.565,0,0,1,2.281,2.406,5.821,5.821,0,0,1,.7,2.719,6.086,6.086,0,0,1-.687,2.766,6.378,6.378,0,0,1-2.281,2.406,7.6,7.6,0,0,1-4.062,1.109h-6.187a4.445,4.445,0,0,0,1.172,2.609,2.9,2.9,0,0,0,2.141.844h9.563v4.7h-10.2a6.38,6.38,0,0,1-4.7-2.031,8.655,8.655,0,0,1-2.562-4.922l-.641-3.547a2.347,2.347,0,0,1,2.36-2.359h9.281a2.292,2.292,0,0,0,1.109-.3,1.906,1.906,0,0,0,.641-.594,1.27,1.27,0,0,0,.219-.687,1.228,1.228,0,0,0-.219-.687,1.758,1.758,0,0,0-.641-.594,2.47,2.47,0,0,0-1.109-.312H177.419a.834.834,0,0,0-.906.922Zm40.45-20.781a5.27,5.27,0,0,1,3.2,1.125,8.81,8.81,0,0,1,2.266,2.609,12.561,12.561,0,0,1,1.281,3.188,14.191,14.191,0,0,1,.422,3.453,14.814,14.814,0,0,1-.719,4.547,10.148,10.148,0,0,1-2.359,3.953,5.877,5.877,0,0,1-4.094,1.859H204.694a5.8,5.8,0,0,1-4.125-1.812A9.95,9.95,0,0,1,198.241,194a15.44,15.44,0,0,1-.687-4.562,15.136,15.136,0,0,1,.7-4.565,10.214,10.214,0,0,1,2.327-3.966,5.8,5.8,0,0,1,4.109-1.844Zm-1.187,16.031a3.23,3.23,0,0,0,2.219-1,5.34,5.34,0,0,0,1.281-2.156,8.311,8.311,0,0,0,.391-2.5,7.853,7.853,0,0,0-.406-2.484,5.57,5.57,0,0,0-1.281-2.156,3.154,3.154,0,0,0-2.2-1.031H205.79a3.159,3.159,0,0,0-2.219,1.031,5.77,5.77,0,0,0-1.281,2.156,7.75,7.75,0,0,0-.406,2.484,8.546,8.546,0,0,0,.375,2.5,5.53,5.53,0,0,0,1.281,2.156,3.289,3.289,0,0,0,2.25,1Zm18.445-11.328a3.214,3.214,0,0,0-2.234,1.031,5.526,5.526,0,0,0-1.281,2.156,8.165,8.165,0,0,0-.391,2.484,8.8,8.8,0,0,0,.359,2.5,5.3,5.3,0,0,0,1.281,2.156,3.348,3.348,0,0,0,2.266,1H247.64v4.7H232.984a5.729,5.729,0,0,1-4.047-1.875,10.306,10.306,0,0,1-2.266-3.953,15.263,15.263,0,0,1-.687-4.531,15.048,15.048,0,0,1,.391-3.422,12.381,12.381,0,0,1,1.219-3.2,8.47,8.47,0,0,1,2.2-2.625,5.19,5.19,0,0,1,3.188-1.125h14.656v4.7Zm20.247-4.813v20.891h-4.75V178.953Zm3.687,5.734a36.211,36.211,0,0,1,6.359-3.2l8.438-3.406v5.2l-6.047,2.25-2.719,1.109a14.77,14.77,0,0,0-2.344,1.25,1.981,1.981,0,0,0-1.125,1.438,2.083,2.083,0,0,0,1.125,1.438,14.461,14.461,0,0,0,2.344,1.25l2.719,1.109,6.328,2.281v5.313l-8.719-3.547a35.689,35.689,0,0,1-6.375-3.219,5.653,5.653,0,0,1,.016-9.266Zm23.119-5.624h15.547v4.7H282.474a3.159,3.159,0,0,0-2.219,1.031,5.769,5.769,0,0,0-1.281,2.156,7.8,7.8,0,0,0,0,4.968,5.9,5.9,0,0,0,1.281,2.156,3.158,3.158,0,0,0,2.219,1.016h14.344v4.7H281.271a5.776,5.776,0,0,1-4.062-1.875,10.251,10.251,0,0,1-2.281-3.953,15.263,15.263,0,0,1-.687-4.531,14.82,14.82,0,0,1,.7-4.531,10.53,10.53,0,0,1,2.281-3.953,5.713,5.713,0,0,1,4.047-1.891Zm15.406,12.578H282.255v-4.7h14.422Zm2-12.578h24.391v4.7h-9.8v16.078h-4.75V183.766h-9.844Zm0,0" transform="translate(-46.418 -135.656)" fill="#3d3934"/>
    <g id="Group_579" data-name="Group 579" transform="translate(-46.418 -135.656)">
      <path id="Path_626" data-name="Path 626" d="M168.37,210.594a3.612,3.612,0,0,1,.359,1.531,3.289,3.289,0,0,1-.391,1.516,3.562,3.562,0,0,1-1.234,1.313,3.721,3.721,0,0,1-2.156.578h-.125a1.371,1.371,0,0,1-.219.016H157.01a1.2,1.2,0,0,1-.859-.359,1.308,1.308,0,0,1-.375-.859v-8.656a1.274,1.274,0,0,1,.375-.859,1.2,1.2,0,0,1,.859-.375h6.5a2.088,2.088,0,0,1,.219.016h.125a4.08,4.08,0,0,1,2.156.609,3.5,3.5,0,0,1,1.234,1.3,3.2,3.2,0,0,1,.375,1.469,3.26,3.26,0,0,1-.359,1.469l-.031.063a3.6,3.6,0,0,1,1.141,1.234Zm-3.312,2.422a1.036,1.036,0,0,0,.594-.125,1.072,1.072,0,0,0,.344-.344.792.792,0,0,0,.125-.422.885.885,0,0,0-.125-.359.966.966,0,0,0-.344-.391,1.144,1.144,0,0,0-.594-.172h-6.719v1.313c0,.336.172.5.516.5Zm-.484-4.516a.9.9,0,0,0,.328-.3.683.683,0,0,0,.125-.375.616.616,0,0,0-.125-.359.956.956,0,0,0-.344-.328,1.179,1.179,0,0,0-.594-.172h-5.109a.456.456,0,0,0-.516.516v1.188h5.625a1.2,1.2,0,0,0,.609-.172Zm0,0" fill="#737373"/>
      <path id="Path_627" data-name="Path 627" d="M179.917,204.438a2.79,2.79,0,0,1,1.719.609,4.55,4.55,0,0,1,1.219,1.391,6.593,6.593,0,0,1,.688,1.719,7.42,7.42,0,0,1,.234,1.859,7.95,7.95,0,0,1-.391,2.453,5.719,5.719,0,0,1-1.266,2.125,3.177,3.177,0,0,1-2.2,1h-6.594a3.14,3.14,0,0,1-2.2-.984,5.391,5.391,0,0,1-1.266-2.141,8.42,8.42,0,0,1-.359-2.453,8.061,8.061,0,0,1,.375-2.437,5.48,5.48,0,0,1,1.25-2.141,3.14,3.14,0,0,1,2.2-1Zm-.641,8.625a1.771,1.771,0,0,0,1.2-.547,2.89,2.89,0,0,0,.688-1.156,4.69,4.69,0,0,0,.2-1.344,4.123,4.123,0,0,0-.219-1.328,2.924,2.924,0,0,0-.687-1.156,1.694,1.694,0,0,0-1.187-.562h-5.359a1.69,1.69,0,0,0-1.187.563,3.11,3.11,0,0,0-.687,1.156,4.03,4.03,0,0,0-.219,1.328,4.56,4.56,0,0,0,.2,1.344,2.793,2.793,0,0,0,.688,1.156,1.785,1.785,0,0,0,1.2.547Zm0,0" fill="#737373"/>
      <path id="Path_628" data-name="Path 628" d="M179.917,204.438a2.79,2.79,0,0,1,1.719.609,4.55,4.55,0,0,1,1.219,1.391,6.593,6.593,0,0,1,.688,1.719,7.42,7.42,0,0,1,.234,1.859,7.95,7.95,0,0,1-.391,2.453,5.719,5.719,0,0,1-1.266,2.125,3.177,3.177,0,0,1-2.2,1h-6.594a3.14,3.14,0,0,1-2.2-.984,5.391,5.391,0,0,1-1.266-2.141,8.42,8.42,0,0,1-.359-2.453,8.061,8.061,0,0,1,.375-2.437,5.48,5.48,0,0,1,1.25-2.141,3.14,3.14,0,0,1,2.2-1Zm-.641,8.625a1.771,1.771,0,0,0,1.2-.547,2.89,2.89,0,0,0,.688-1.156,4.69,4.69,0,0,0,.2-1.344,4.123,4.123,0,0,0-.219-1.328,2.924,2.924,0,0,0-.687-1.156,1.694,1.694,0,0,0-1.187-.562h-5.359a1.69,1.69,0,0,0-1.187.563,3.11,3.11,0,0,0-.687,1.156,4.03,4.03,0,0,0-.219,1.328,4.56,4.56,0,0,0,.2,1.344,2.793,2.793,0,0,0,.688,1.156,1.785,1.785,0,0,0,1.2.547Zm0,0" transform="translate(15.111)" fill="#737373"/>
      <path id="Path_629" data-name="Path 629" d="M202.545,204.391V215.61H200V204.391Zm1.984,3.078a18.429,18.429,0,0,1,3.422-1.719l4.531-1.844v2.8l-3.25,1.219-1.453.594a8.41,8.41,0,0,0-1.266.672,1.016,1.016,0,0,0-.594.766,1.08,1.08,0,0,0,.594.781,8.07,8.07,0,0,0,1.266.672l1.453.594,3.406,1.219v2.859l-4.687-1.906a19.083,19.083,0,0,1-3.437-1.734,3.038,3.038,0,0,1,.016-4.968Zm8.731,5.594h4.688v-6.094h-4.687v-2.531h11.906v2.531H220.5v6.094h4.672v2.531H213.26Zm19.063-9.125a8.565,8.565,0,0,1,3.751.89,5.22,5.22,0,0,1,1.547,1.188,2.72,2.72,0,0,1,.719,1.75v7.875h-2.547V208.36a1.436,1.436,0,0,0-.437-.984,3.105,3.105,0,0,0-.906-.609,4.7,4.7,0,0,0-1.047-.344,5.567,5.567,0,0,0-1.078-.109,5.806,5.806,0,0,0-1.094.109,4.646,4.646,0,0,0-1.031.344,3.13,3.13,0,0,0-.906.609,1.48,1.48,0,0,0-.453.984v7.281H226.31v-7.875a2.8,2.8,0,0,1,.719-1.75,5.184,5.184,0,0,1,1.531-1.187,8.34,8.34,0,0,1,1.828-.656,8.07,8.07,0,0,1,1.938-.234Zm11.048.5h8.953v2.531h-8.312a1.69,1.69,0,0,0-1.187.563,3.11,3.11,0,0,0-.687,1.156,4.031,4.031,0,0,0-.219,1.328,4.1,4.1,0,0,0,.219,1.328,3.235,3.235,0,0,0,.688,1.172,1.707,1.707,0,0,0,1.188.547h5.75a.355.355,0,0,0,.344-.391v-1.094c-.012-.25-.125-.375-.344-.375h-5.906v-2.531h7.516a1.2,1.2,0,0,1,1.266,1.234v4.453a1.2,1.2,0,0,1-.344.844,1.3,1.3,0,0,1-.875.391h-8.047a3.085,3.085,0,0,1-2.187-1.016,5.639,5.639,0,0,1-1.234-2.125,8.265,8.265,0,0,1-.359-2.437,8.06,8.06,0,0,1,.375-2.437,5.73,5.73,0,0,1,1.219-2.125,3.1,3.1,0,0,1,2.188-1.016Zm0,0" fill="#737373"/>
    </g>
  </g>
</svg>